name D:\school\WTK\thesis\model\3dpredictsim\Results\running\Pog_s1_tmt_bCst_d05_k1000_ig24_27ms.mot
datacolumns 128
datarows 4
range 0.58645051 0.60404403
endheader
time	pelvis_tilt	pelvis_list	pelvis_rotation	pelvis_tx	pelvis_ty	pelvis_tz	hip_flexion_l	hip_adduction_l	hip_rotation_l	hip_flexion_r	hip_adduction_r	hip_rotation_r	knee_angle_l	knee_angle_r	ankle_angle_l	ankle_angle_r	subtalar_angle_l	subtalar_angle_r	tmt_angle_l	tmt_angle_r	mtp_angle_l	mtp_angle_r	lumbar_extension	lumbar_bending	lumbar_rotation	arm_flex_l	arm_add_l	arm_rot_l	arm_flex_r	arm_add_r	arm_rot_r	elbow_flex_l	elbow_flex_r	pro_sup_l	pro_sup_r	glut_med1_l/activation	glut_med2_l/activation	glut_med3_l/activation	glut_min1_l/activation	glut_min2_l/activation	glut_min3_l/activation	semimem_l/activation	semiten_l/activation	bifemlh_l/activation	bifemsh_l/activation	sar_l/activation	add_long_l/activation	add_brev_l/activation	add_mag1_l/activation	add_mag2_l/activation	add_mag3_l/activation	tfl_l/activation	pect_l/activation	grac_l/activation	glut_max1_l/activation	glut_max2_l/activation	glut_max3_l/activation	iliacus_l/activation	psoas_l/activation	quad_fem_l/activation	gem_l/activation	peri_l/activation	rect_fem_l/activation	vas_med_l/activation	vas_int_l/activation	vas_lat_l/activation	med_gas_l/activation	lat_gas_l/activation	soleus_l/activation	tib_post_l/activation	flex_dig_l/activation	flex_hal_l/activation	tib_ant_l/activation	per_brev_l/activation	per_long_l/activation	per_tert_l/activation	ext_dig_l/activation	ext_hal_l/activation	ercspn_l/activation	intobl_l/activation	extobl_l/activation	glut_med1_r/activation	glut_med2_r/activation	glut_med3_r/activation	glut_min1_r/activation	glut_min2_r/activation	glut_min3_r/activation	semimem_r/activation	semiten_r/activation	bifemlh_r/activation	bifemsh_r/activation	sar_r/activation	add_long_r/activation	add_brev_r/activation	add_mag1_r/activation	add_mag2_r/activation	add_mag3_r/activation	tfl_r/activation	pect_r/activation	grac_r/activation	glut_max1_r/activation	glut_max2_r/activation	glut_max3_r/activation	iliacus_r/activation	psoas_r/activation	quad_fem_r/activation	gem_r/activation	peri_r/activation	rect_fem_r/activation	vas_med_r/activation	vas_int_r/activation	vas_lat_r/activation	med_gas_r/activation	lat_gas_r/activation	soleus_r/activation	tib_post_r/activation	flex_dig_r/activation	flex_hal_r/activation	tib_ant_r/activation	per_brev_r/activation	per_long_r/activation	per_tert_r/activation	ext_dig_r/activation	ext_hal_r/activation	ercspn_r/activation	intobl_r/activation	extobl_r/activation	
          0.58645051	        -12.83701804	         -1.49224795	         -0.99412887	          1.58341639	          0.83241983	          0.00075810	          2.52097963	          0.58170603	          3.18662198	         49.33510939	          3.67240245	         -2.69873360	        -38.24166464	        -30.43811000	         -6.34269541	         17.67607937	          5.58494166	         -1.81943608	         -0.10500875	          0.08896546	         15.74699213	         -0.12232671	          1.43861992	          2.80711421	         -2.70721972	          0.90736025	        -14.38843091	         19.34384808	         -8.31491141	        -13.87051154	          4.23318674	         37.08780695	         62.32542621	         86.51662706	         86.51662706	          0.11783773	          0.06762593	          0.10296348	          0.12443375	          0.11922268	          0.11953462	          0.15162438	          0.05000664	          0.05487454	          0.07415458	          0.38384265	          0.93136050	          0.24199856	          0.06330678	          0.07909488	          0.05000012	          0.94450448	          0.31704917	          0.19472980	          0.05911036	          0.05488726	          0.05488711	          0.80702253	          0.96425583	          0.70629830	          0.80210635	          0.16806223	          0.40096250	          0.08572627	          0.08897765	          0.07776105	          0.15610054	          0.22920249	          0.07205480	          0.21332373	          0.12596060	          0.24310425	          0.05000001	          0.05919277	          0.08272480	          0.08425166	          0.79617128	          0.64899559	          0.16227381	          0.18560336	          0.05000001	          0.06614097	          0.16460143	          0.32740213	          0.06614094	          0.06614094	          0.06614107	          0.59149713	          0.06614098	          0.49798162	          0.05000037	          0.13947874	          0.06275932	          0.20692857	          0.49236217	          0.55307256	          0.46681179	          0.06865038	          0.05004144	          0.13005435	          0.48683841	          0.48193650	          0.62351539	          0.08042573	          0.08567706	          0.10255196	          0.12340126	          0.64913655	          0.05000006	          0.06245418	          0.06203701	          0.07368175	          0.05488715	          0.05488719	          0.05711408	          0.15106539	          0.05920942	          0.05960947	          0.34511684	          0.43787792	          0.24121532	          0.54093846	          0.73392577	          0.53768009	          0.23028106	          0.05000001	          0.05000008	
          0.59231502	        -12.80776033	         -1.41317918	         -0.94609973	          1.60021618	          0.83098747	          0.00073360	          2.86110670	          0.60296299	          3.06057540	         49.07459903	          3.81892252	         -2.39700826	        -40.10697894	        -30.47843037	         -6.89869585	         17.06084829	          6.26176194	         -2.19062775	         -0.13042904	          0.10523023	         12.89009293	         -0.09893770	          1.55619183	          2.85483948	         -2.70481275	          0.77959407	        -14.38904386	         19.35456586	         -8.38750572	        -13.81430254	          4.10015228	         37.03746655	         62.07285948	         86.51662706	         86.51662706	          0.10734559	          0.06160461	          0.09379573	          0.11335431	          0.10860723	          0.10889140	          0.16925515	          0.05000018	          0.05000018	          0.06755235	          0.40329054	          0.86238770	          0.22045133	          0.05767005	          0.07205240	          0.05000006	          0.96010290	          0.47325791	          0.17739144	          0.05384730	          0.05000019	          0.05000005	          0.73516612	          0.94849443	          0.64341028	          0.73068816	          0.15309817	          0.44082630	          0.07809329	          0.08105517	          0.07083729	          0.14220152	          0.20879455	          0.08568776	          0.19432963	          0.22764540	          0.22145855	          0.05000015	          0.05392231	          0.07535908	          0.07674999	          0.85346257	          0.74765437	          0.15345126	          0.22960665	          0.05000002	          0.06025186	          0.14994552	          0.29825066	          0.06025190	          0.06025189	          0.06025200	          0.53883086	          0.06025190	          0.45364187	          0.05000015	          0.12705971	          0.05717271	          0.19160104	          0.56086391	          0.55364646	          0.46074847	          0.06253785	          0.05000207	          0.11847775	          0.50486068	          0.49032975	          0.61163873	          0.07326474	          0.07804849	          0.16738530	          0.11241380	          0.74775545	          0.05000001	          0.05689351	          0.05651353	          0.08613550	          0.05000007	          0.05000011	          0.05202871	          0.13761471	          0.05393759	          0.05430198	          0.43514708	          0.50086527	          0.25056347	          0.66996945	          0.80871266	          0.59527844	          0.20977710	          0.05000002	          0.05000005	
          0.59817952	        -12.77510884	         -1.33979094	         -0.88906087	          1.61699897	          0.82929721	          0.00071631	          3.35742601	          0.63670570	          2.91438522	         48.79823413	          3.97800217	         -2.08672545	        -42.11398345	        -31.04948201	         -6.89984316	         16.28432328	          6.84182297	         -2.57970941	         -0.10691814	          0.10664964	         10.51562004	         -0.07722172	          1.67591655	          2.89977560	         -2.69044733	          0.67499804	        -14.38337004	         19.36499518	         -8.42722980	        -13.76669390	          4.00361237	         36.94387651	         61.73002429	         86.51662706	         86.51662706	          0.09778765	          0.05611942	          0.08544427	          0.10326137	          0.09893697	          0.09919584	          0.18035156	          0.05000100	          0.05000039	          0.06153765	          0.36739749	          0.79553750	          0.29795809	          0.05253524	          0.06563699	          0.05000001	          0.97131699	          0.62076039	          0.24248463	          0.05000008	          0.05000002	          0.05000001	          0.66970772	          0.86405680	          0.71002541	          0.66562866	          0.13946649	          0.50930476	          0.07113995	          0.07383811	          0.06453002	          0.12954005	          0.19020371	          0.07805821	          0.17702673	          0.20737613	          0.20174013	          0.11074273	          0.05000021	          0.06864919	          0.06991627	          0.89465068	          0.81858258	          0.15658419	          0.29157529	          0.05000000	          0.05488710	          0.13659454	          0.27169477	          0.05488714	          0.05488713	          0.05488724	          0.49085394	          0.05488715	          0.41325009	          0.05488708	          0.11574646	          0.07970253	          0.17840154	          0.66996466	          0.50435047	          0.41972404	          0.05696956	          0.07967476	          0.10792869	          0.50736961	          0.53700261	          0.63428418	          0.07260567	          0.07260566	          0.40141305	          0.36189257	          0.81865518	          0.07115118	          0.13989934	          0.13611974	          0.16463095	          0.05000000	          0.05000000	          0.05000000	          0.22256007	          0.05000024	          0.05000009	          0.47284263	          0.45626879	          0.22825358	          0.71473708	          0.81664033	          0.54227557	          0.19717978	          0.05000001	          0.05000038	
          0.60404403	        -12.74022187	         -1.27641115	         -0.81902154	          1.63376038	          0.82739456	          0.00070219	          3.99410087	          0.67161661	          2.74338165	         48.46838062	          4.13084834	         -1.73716332	        -44.20701976	        -32.07798512	         -6.53376400	         15.37398382	          7.35183900	         -2.97803753	         -0.09571161	          0.04922528	          8.55649342	         -0.06138058	          1.79630908	          2.94377721	         -2.66401556	          0.59797349	        -14.36870273	         19.37641257	         -8.43372112	        -13.72842266	          3.94632853	         36.80319586	         61.29055786	         86.51662706	         86.51662706	          0.08908074	          0.05488723	          0.08749260	          0.09406709	          0.09012774	          0.09036356	          0.17729461	          0.07046137	          0.20252035	          0.05605842	          0.33468485	          0.72470391	          0.49528492	          0.16805870	          0.06613440	          0.05488460	          0.97937908	          0.56548942	          0.32455568	          0.06614379	          0.06614111	          0.06614120	          0.61007766	          0.78712212	          0.64680555	          0.60636183	          0.12704855	          0.55666253	          0.06480573	          0.06726364	          0.05878433	          0.11800594	          0.17326817	          0.07110800	          0.16126446	          0.18891162	          0.18377742	          0.16078764	          0.05000010	          0.06253675	          0.27656376	          0.92426181	          0.86957459	          0.17815135	          0.29406436	          0.05000000	          0.05000002	          0.12443231	          0.24750341	          0.05000006	          0.05000005	          0.05000016	          0.44714883	          0.05000006	          0.37645474	          0.05000000	          0.10544052	          0.07260603	          0.23239976	          0.67674458	          0.55177571	          0.44909961	          0.05488740	          0.07258927	          0.09831887	          0.51871284	          0.51770302	          0.60018531	          0.06614096	          0.06614097	          0.56966127	          0.32967007	          0.86962671	          0.06481666	          0.20498218	          0.18436223	          0.20905494	          0.07495019	          0.07977180	          0.06623825	          0.20274364	          0.06025168	          0.06025183	          0.43074123	          0.56569073	          0.24344903	          0.65109767	          0.74392755	          0.49399194	          0.17962311	          0.05000000	          0.05414452	
